<svg xmlns="http://www.w3.org/2000/svg" version="1.1" xmlns:xlink="http://www.w3.org/1999/xlink" xmlns:svgjs="http://svgjs.dev/svgjs" width="1900" height="1300" preserveAspectRatio="none" viewBox="0 0 1900 1300"><g mask="url(&quot;#SvgjsMask1164&quot;)" fill="none"><rect width="1900" height="1300" x="0" y="0" fill="rgba(52, 61, 70, 1)"></rect><path d="M0,651.516C117,618.251,218.537,562.589,329.426,512.597C462.85,452.446,625.349,441.226,717.915,327.861C818.619,204.528,867.759,36.078,847.465,-121.847C827.063,-280.618,720.259,-412.71,608.076,-526.901C500.912,-635.984,367.889,-710.397,222.554,-757.948C73.634,-806.672,-92.163,-865.646,-235.78,-802.994C-377.247,-741.28,-411.022,-560.209,-507.284,-439.564C-598.417,-325.347,-745.542,-253.374,-786.283,-113.05C-829.029,34.179,-784.154,190.124,-731.956,334.273C-676.254,488.097,-626.835,676.744,-476.728,741.803C-325.264,807.45,-158.785,696.662,0,651.516" fill="#2b3239"></path><path d="M1900 2035.007C2042.394 2028.7730000000001 2175.042 1987.998 2306.009 1931.762 2460.2219999999998 1865.545 2668.372 1835.121 2729.511 1678.825 2791.195 1521.135 2628.157 1365.93 2592.061 1200.497 2559.4719999999998 1051.1390000000001 2616.307 880.605 2528.103 755.746 2437.936 628.108 2276.987 568.77 2123.835 537.689 1978.388 508.172 1835.219 553.855 1690.267 585.716 1534.155 620.031 1339.845 603.606 1243.549 731.182 1146.788 859.374 1229.312 1042.3310000000001 1224.434 1202.868 1220.205 1342.03 1174.179 1479.467 1216.784 1612.0140000000001 1262.325 1753.695 1343.949 1890.005 1470.481 1968.344 1596.216 2046.1889999999999 1752.26 2041.476 1900 2035.007" fill="#3d4853"></path></g><defs><mask id="SvgjsMask1164"><rect width="1900" height="1300" fill="#ffffff"></rect></mask></defs></svg>